<mxfile host="65bd71144e">
    <diagram id="gdDDXUyTogTvr6vzrvYJ" name="第 1 页">
        <mxGraphModel dx="1240" dy="527" grid="1" gridSize="10" guides="1" tooltips="1" connect="1" arrows="1" fold="1" page="1" pageScale="1" pageWidth="827" pageHeight="1169" background="#ffffff" math="0" shadow="0">
            <root>
                <mxCell id="0"/>
                <mxCell id="1" parent="0"/>
                <mxCell id="33" value="" style="group" parent="1" vertex="1" connectable="0">
                    <mxGeometry x="930" y="70" width="100" height="390" as="geometry"/>
                </mxCell>
                <mxCell id="34" value="" style="rounded=1;whiteSpace=wrap;html=1;fontSize=23;fontColor=#000000;fillColor=#CCFFCC;strokeColor=#330066;" parent="33" vertex="1">
                    <mxGeometry width="100" height="390" as="geometry"/>
                </mxCell>
                <mxCell id="35" value="SUM=102" style="text;html=1;strokeColor=none;fillColor=none;align=center;verticalAlign=middle;whiteSpace=wrap;rounded=0;fontSize=17;fontColor=#000000;" parent="33" vertex="1">
                    <mxGeometry x="20" y="325" width="60" height="30" as="geometry"/>
                </mxCell>
                <mxCell id="29" value="" style="group" parent="1" vertex="1" connectable="0">
                    <mxGeometry x="780" y="70" width="100" height="390" as="geometry"/>
                </mxCell>
                <mxCell id="30" value="" style="rounded=1;whiteSpace=wrap;html=1;fontSize=23;fontColor=#000000;fillColor=#CCFFCC;strokeColor=#330066;" parent="29" vertex="1">
                    <mxGeometry width="100" height="390" as="geometry"/>
                </mxCell>
                <mxCell id="31" value="SUM=100" style="text;html=1;strokeColor=none;fillColor=none;align=center;verticalAlign=middle;whiteSpace=wrap;rounded=0;fontSize=17;fontColor=#000000;" parent="29" vertex="1">
                    <mxGeometry x="20" y="325" width="60" height="30" as="geometry"/>
                </mxCell>
                <mxCell id="27" value="" style="group" parent="1" vertex="1" connectable="0">
                    <mxGeometry x="630" y="70" width="100" height="390" as="geometry"/>
                </mxCell>
                <mxCell id="19" value="" style="rounded=1;whiteSpace=wrap;html=1;fontSize=23;fontColor=#000000;fillColor=#CCFFCC;strokeColor=#330066;" parent="27" vertex="1">
                    <mxGeometry width="100" height="390" as="geometry"/>
                </mxCell>
                <mxCell id="24" value="SUM=102" style="text;html=1;strokeColor=none;fillColor=none;align=center;verticalAlign=middle;whiteSpace=wrap;rounded=0;fontSize=17;fontColor=#000000;" parent="27" vertex="1">
                    <mxGeometry x="20" y="325" width="60" height="30" as="geometry"/>
                </mxCell>
                <mxCell id="18" value="" style="rounded=1;whiteSpace=wrap;html=1;fontSize=23;fontColor=#000000;fillColor=#CCFFCC;strokeColor=#330066;" parent="1" vertex="1">
                    <mxGeometry x="333.5" y="70" width="100" height="390" as="geometry"/>
                </mxCell>
                <mxCell id="17" value="" style="rounded=1;whiteSpace=wrap;html=1;fontSize=23;fontColor=#000000;fillColor=#CCFFCC;strokeColor=#330066;" parent="1" vertex="1">
                    <mxGeometry x="190" y="70" width="100" height="390" as="geometry"/>
                </mxCell>
                <mxCell id="16" value="" style="rounded=1;whiteSpace=wrap;html=1;fontSize=23;fontColor=#000000;fillColor=#CCFFCC;strokeColor=#330066;" parent="1" vertex="1">
                    <mxGeometry x="40" y="70" width="100" height="390" as="geometry"/>
                </mxCell>
                <mxCell id="2" value="&lt;b style=&quot;font-size: 23px;&quot;&gt;1&lt;/b&gt;" style="ellipse;whiteSpace=wrap;html=1;aspect=fixed;fillColor=#99CCFF;fontColor=#000000;fontSize=23;" parent="1" vertex="1">
                    <mxGeometry x="60" y="110" width="60" height="60" as="geometry"/>
                </mxCell>
                <mxCell id="3" value="&lt;b&gt;5&lt;/b&gt;" style="ellipse;whiteSpace=wrap;html=1;aspect=fixed;fillColor=#99CCFF;fontColor=#000000;fontSize=23;" parent="1" vertex="1">
                    <mxGeometry x="210" y="110" width="60" height="60" as="geometry"/>
                </mxCell>
                <mxCell id="4" value="&lt;b&gt;9&lt;/b&gt;" style="ellipse;whiteSpace=wrap;html=1;aspect=fixed;fillColor=#99CCFF;fontColor=#000000;fontSize=23;" parent="1" vertex="1">
                    <mxGeometry x="353.5" y="110" width="60" height="60" as="geometry"/>
                </mxCell>
                <mxCell id="5" value="&lt;b&gt;...&lt;/b&gt;" style="ellipse;whiteSpace=wrap;html=1;aspect=fixed;fillColor=#99CCFF;fontColor=#000000;fontSize=23;" parent="1" vertex="1">
                    <mxGeometry x="500" y="110" width="60" height="60" as="geometry"/>
                </mxCell>
                <mxCell id="6" value="&lt;b&gt;93&lt;/b&gt;" style="ellipse;whiteSpace=wrap;html=1;aspect=fixed;fillColor=#99CCFF;fontColor=#000000;fontSize=23;" parent="1" vertex="1">
                    <mxGeometry x="650" y="110" width="60" height="60" as="geometry"/>
                </mxCell>
                <mxCell id="7" value="&lt;b&gt;97&lt;/b&gt;" style="ellipse;whiteSpace=wrap;html=1;aspect=fixed;fillColor=#99CCFF;fontColor=#000000;fontSize=23;" parent="1" vertex="1">
                    <mxGeometry x="210" y="240" width="60" height="60" as="geometry"/>
                </mxCell>
                <mxCell id="8" value="&lt;b&gt;101&lt;/b&gt;" style="ellipse;whiteSpace=wrap;html=1;aspect=fixed;fillColor=#99CCFF;fontColor=#000000;fontSize=23;" parent="1" vertex="1">
                    <mxGeometry x="60" y="240" width="60" height="60" as="geometry"/>
                </mxCell>
                <mxCell id="9" value="&lt;span&gt;93&lt;/span&gt;" style="ellipse;whiteSpace=wrap;html=1;aspect=fixed;fillColor=#99CCFF;fontColor=#000000;fontSize=23;fontStyle=1" parent="1" vertex="1">
                    <mxGeometry x="353.5" y="240" width="60" height="60" as="geometry"/>
                </mxCell>
                <mxCell id="10" value="&lt;b&gt;97&lt;/b&gt;" style="ellipse;whiteSpace=wrap;html=1;aspect=fixed;fillColor=#99CCFF;fontColor=#000000;fontSize=23;" parent="1" vertex="1">
                    <mxGeometry x="800" y="110" width="60" height="60" as="geometry"/>
                </mxCell>
                <mxCell id="11" value="&lt;b&gt;101&lt;/b&gt;" style="ellipse;whiteSpace=wrap;html=1;aspect=fixed;fillColor=#99CCFF;fontColor=#000000;fontSize=23;" parent="1" vertex="1">
                    <mxGeometry x="950" y="110" width="60" height="60" as="geometry"/>
                </mxCell>
                <mxCell id="12" value="&lt;b&gt;...&lt;/b&gt;" style="ellipse;whiteSpace=wrap;html=1;aspect=fixed;fillColor=#99CCFF;fontColor=#000000;fontSize=23;" parent="1" vertex="1">
                    <mxGeometry x="500" y="240" width="60" height="60" as="geometry"/>
                </mxCell>
                <mxCell id="13" value="&lt;b&gt;9&lt;/b&gt;" style="ellipse;whiteSpace=wrap;html=1;aspect=fixed;fillColor=#99CCFF;fontColor=#000000;fontSize=23;" parent="1" vertex="1">
                    <mxGeometry x="650" y="240" width="60" height="60" as="geometry"/>
                </mxCell>
                <mxCell id="14" value="&lt;b style=&quot;font-size: 23px;&quot;&gt;5&lt;/b&gt;" style="ellipse;whiteSpace=wrap;html=1;aspect=fixed;fillColor=#99CCFF;fontColor=#000000;fontSize=23;" parent="1" vertex="1">
                    <mxGeometry x="800" y="240" width="60" height="60" as="geometry"/>
                </mxCell>
                <mxCell id="15" value="&lt;b style=&quot;font-size: 23px;&quot;&gt;1&lt;/b&gt;" style="ellipse;whiteSpace=wrap;html=1;aspect=fixed;fillColor=#99CCFF;fontColor=#000000;fontSize=23;" parent="1" vertex="1">
                    <mxGeometry x="950" y="240" width="60" height="60" as="geometry"/>
                </mxCell>
                <mxCell id="21" value="SUM=102" style="text;html=1;strokeColor=none;fillColor=none;align=center;verticalAlign=middle;whiteSpace=wrap;rounded=0;fontSize=17;fontColor=#000000;" parent="1" vertex="1">
                    <mxGeometry x="210" y="390" width="60" height="30" as="geometry"/>
                </mxCell>
                <mxCell id="22" value="SUM=102" style="text;html=1;strokeColor=none;fillColor=none;align=center;verticalAlign=middle;whiteSpace=wrap;rounded=0;fontSize=17;fontColor=#000000;" parent="1" vertex="1">
                    <mxGeometry x="350" y="390" width="60" height="30" as="geometry"/>
                </mxCell>
                <mxCell id="23" value="SUM=102" style="text;html=1;strokeColor=none;fillColor=none;align=center;verticalAlign=middle;whiteSpace=wrap;rounded=0;fontSize=17;fontColor=#000000;" parent="1" vertex="1">
                    <mxGeometry x="60" y="390" width="60" height="30" as="geometry"/>
                </mxCell>
                <mxCell id="37" value="" style="shape=curlyBracket;whiteSpace=wrap;html=1;rounded=1;labelPosition=left;verticalLabelPosition=middle;align=right;verticalAlign=middle;strokeColor=#330066;fontSize=17;fontColor=#000000;fillColor=#CCFFCC;strokeWidth=4;rotation=-90;" parent="1" vertex="1">
                    <mxGeometry x="524.24" y="35.23" width="20" height="970" as="geometry"/>
                </mxCell>
                <mxCell id="38" value="&lt;b style=&quot;font-size: 29px;&quot;&gt;&lt;font style=&quot;font-size: 29px;&quot;&gt;共&amp;nbsp; ？组&lt;/font&gt;&lt;/b&gt;" style="text;html=1;strokeColor=none;fillColor=none;align=center;verticalAlign=middle;whiteSpace=wrap;rounded=0;strokeWidth=4;fontSize=29;fontColor=#000000;" parent="1" vertex="1">
                    <mxGeometry x="374.24" y="540" width="320" height="50" as="geometry"/>
                </mxCell>
            </root>
        </mxGraphModel>
    </diagram>
</mxfile>